<svg width="169" height="167" viewBox="0 0 169 167" fill="none" xmlns="http://www.w3.org/2000/svg">
<g clip-path="url(#clip0)">
<path d="M60.7168 45.0193C61.2307 44.5883 55.6347 37.0197 48.2167 28.1109C40.7949 19.2003 34.3613 12.3262 33.8474 12.7572C33.3336 13.1826 38.9296 20.7569 46.3513 29.6676C53.7713 38.5726 60.2011 45.4466 60.7168 45.0193Z" fill="#A0AFF8"/>
<path d="M72.5535 19.6391C74.2113 31.1127 76.0924 40.3364 76.7549 40.2406C77.4175 40.1449 76.6107 30.7661 74.9529 19.2924C73.2951 7.8188 71.414 -1.40481 70.7515 -1.30908C70.0889 -1.21335 70.8957 8.16548 72.5535 19.6391Z" fill="#A0AFF8"/>
<path d="M71.5947 40.7034C72.2365 40.5114 70.0926 31.3485 66.7911 20.2319C63.5009 9.11519 60.3086 0.257231 59.6648 0.44734C59.0192 0.641213 61.1744 9.80786 64.4628 20.9208C67.7605 32.0393 70.9528 40.8954 71.5947 40.7034Z" fill="#A0AFF8"/>
<path d="M14.3927 32.8288C14.0527 33.408 21.8827 38.6352 31.8815 44.5041C41.8802 50.373 50.2613 54.6612 50.6013 54.0821C50.9412 53.5029 43.1112 48.2757 33.1125 42.4068C23.1137 36.5379 14.7326 32.2497 14.3927 32.8288Z" fill="#A0AFF8"/>
<path d="M7.45168 44.7808C7.21399 45.4078 15.8102 49.248 26.6518 53.3581C37.4934 57.4682 46.475 60.2918 46.7127 59.6648C46.9504 59.0378 38.3542 55.1976 27.5126 51.0875C16.6709 46.9774 7.68938 44.1538 7.45168 44.7808Z" fill="#A0AFF8"/>
<path d="M22.69 22.9944C22.2731 23.5209 29.3039 29.7825 38.3936 36.9801C47.4834 44.1777 55.1901 49.5858 55.607 49.0593C56.0239 48.5328 48.9931 42.2711 39.9034 35.0735C30.8136 27.8759 23.1069 22.4679 22.69 22.9944Z" fill="#A0AFF8"/>
<path d="M3.37718 55.7303C3.205 56.3783 12.1494 59.3173 23.3551 62.2947C34.5608 65.272 43.7844 67.1603 43.9565 66.5123C44.1287 65.8642 35.1843 62.9252 23.9786 59.9479C12.773 56.9705 3.54937 55.0823 3.37718 55.7303Z" fill="#A0AFF8"/>
<path d="M82.4499 39.5816C83.1238 39.5816 83.6677 30.1815 83.6677 18.5868C83.6677 6.99387 83.1256 -2.4043 82.4499 -2.4043C81.7836 -2.4043 81.2358 6.99387 81.2358 18.5849C81.2377 30.1815 81.7836 39.5816 82.4499 39.5816Z" fill="#A0AFF8"/>
<path d="M131.631 43.1123C121.629 48.9749 113.796 54.1957 114.135 54.7732C114.473 55.3508 122.855 51.0664 132.857 45.2038C142.858 39.3412 150.691 34.1204 150.353 33.5429C150.014 32.9653 141.632 37.2497 131.631 43.1123Z" fill="#A0AFF8"/>
<path d="M137.218 51.7816C126.382 55.9068 117.791 59.7597 118.03 60.3874C118.269 61.015 127.247 58.1797 138.083 54.0545C148.919 49.9293 157.509 46.0764 157.27 45.4488C157.031 44.8212 148.053 47.6565 137.218 51.7816Z" fill="#A0AFF8"/>
<path d="M120.919 67.0271C114.877 52.0537 100.201 41.4885 83.0613 41.4885C62.2434 41.4885 45.0659 57.0756 42.5643 77.2177C41.0566 76.6342 32.338 76.1863 21.8029 76.1863C10.21 76.1863 0.813721 76.7302 0.813721 77.4022C0.813721 78.0704 10.2119 78.6182 21.8029 78.6182C32.242 78.6182 40.9004 78.1758 42.5229 77.5999C42.3479 79.1377 42.25 80.7056 42.25 82.298C42.25 104.836 60.523 123.111 83.0594 123.111C105.601 123.111 123.876 104.836 123.876 82.298C123.876 79.4351 123.579 76.638 123.018 73.9426C124.635 74.3228 133.316 73.6621 143.723 72.3389C155.226 70.8689 164.481 69.139 164.39 68.4746C164.309 67.812 154.915 68.4633 143.416 69.9296C132.928 71.2641 124.315 72.8189 122.939 73.5869C122.469 71.4373 121.838 69.3499 121.047 67.3396C122.625 67.5241 131.185 65.7077 141.38 62.9897C152.581 60.0006 161.524 57.053 161.352 56.4055C161.181 55.7561 151.956 57.6534 140.755 60.6406C130.455 63.3887 122.071 66.1048 120.919 67.0271Z" fill="#A0AFF8"/>
<path d="M88.0113 40.9413C88.6751 41.0362 90.5429 31.81 92.1834 20.3341C93.8238 8.8581 94.6155 -0.521908 93.9518 -0.616785C93.2881 -0.711661 91.4202 8.51452 89.7798 19.9905C88.1393 31.4664 87.3476 40.8464 88.0113 40.9413Z" fill="#A0AFF8"/>
<path d="M0.349307 67.7809C0.264354 68.4459 9.51822 70.1759 21.0184 71.6449C32.5186 73.1139 41.9102 73.7655 41.9951 73.1005C42.0801 72.4354 32.8262 70.7054 21.326 69.2364C9.82586 67.7675 0.43426 67.1158 0.349307 67.7809Z" fill="#A0AFF8"/>
<path d="M123.85 79.7775C123.85 80.4514 133.245 80.9972 144.837 80.9972C156.434 80.9972 165.834 80.4514 165.834 79.7775C165.834 79.1112 156.434 78.5635 144.837 78.5635C133.245 78.5635 123.85 79.1093 123.85 79.7775Z" fill="#A0AFF8"/>
<path d="M93.1467 41.3959C93.7848 41.5898 96.979 32.7299 100.273 21.617C103.567 10.5003 105.715 1.33933 105.077 1.14546C104.429 0.951582 101.24 9.81142 97.9408 20.9243C94.6525 32.041 92.5011 41.2095 93.1467 41.3959Z" fill="#A0AFF8"/>
<path d="M99.0285 42.5368C99.6252 42.8474 104.457 34.7687 109.825 24.4934C115.186 14.2106 119.054 5.63306 118.461 5.31872C117.87 5.00815 113.033 13.0868 107.67 23.3678C102.306 33.6393 98.4356 42.2262 99.0285 42.5368Z" fill="#A0AFF8"/>
<path d="M104.026 45.7104C104.538 46.1433 110.972 39.2693 118.392 30.3605C125.814 21.4498 131.41 13.8831 130.898 13.4521C130.376 13.021 123.946 19.8951 116.528 28.8057C109.108 37.7108 103.509 45.2794 104.026 45.7104Z" fill="#A0AFF8"/>
<path d="M124.833 35.7715C115.736 42.958 108.699 49.2117 109.116 49.7395C109.533 50.2673 117.246 44.8693 126.343 37.6828C135.44 30.4962 142.476 24.2426 142.06 23.7148C141.643 23.187 133.93 28.585 124.833 35.7715Z" fill="#A0AFF8"/>
<path d="M65.7106 41.8366C66.3035 41.5297 62.4354 32.9485 57.0672 22.6732C51.7027 12.3941 46.8709 4.31353 46.278 4.63164C45.6851 4.93468 49.5532 13.5197 54.9158 23.7931C60.2821 34.0684 65.1139 42.1528 65.7106 41.8366Z" fill="#A0AFF8"/>
<path d="M113.297 139.928C107.932 129.651 103.099 121.573 102.502 121.884C101.906 122.195 105.773 130.779 111.138 141.056C116.504 151.333 121.337 159.411 121.933 159.1C122.53 158.789 118.663 150.205 113.297 139.928Z" fill="#A0AFF8"/>
<path d="M129.813 126.733C120.714 119.55 113.003 114.144 112.587 114.671C112.173 115.202 119.21 121.453 128.309 128.639C137.403 135.826 145.12 141.228 145.53 140.699C145.948 140.174 138.906 133.921 129.813 126.733Z" fill="#A0AFF8"/>
<path d="M107.495 118.693C106.985 119.124 112.577 126.698 119.997 135.598C127.419 144.512 133.849 151.382 134.366 150.953C134.878 150.522 129.284 142.957 121.861 134.047C114.441 125.144 108.007 118.262 107.495 118.693Z" fill="#A0AFF8"/>
<path d="M95.651 144.067C93.992 132.593 92.1092 123.37 91.4456 123.466C90.782 123.562 91.5889 132.941 93.2479 144.414C94.9069 155.888 96.7897 165.111 97.4533 165.015C98.1169 164.92 97.31 155.541 95.651 144.067Z" fill="#A0AFF8"/>
<path d="M103.753 142.79C100.458 131.674 97.2659 122.817 96.623 123.007C95.9801 123.198 98.1301 132.364 101.425 143.48C104.72 154.597 107.913 163.454 108.555 163.263C109.198 163.073 107.048 153.907 103.753 142.79Z" fill="#A0AFF8"/>
<path d="M145.462 88.5995C133.96 87.1351 124.567 86.4857 124.483 87.1483C124.396 87.8146 133.647 89.5425 145.15 91.0088C156.647 92.477 166.045 93.1263 166.13 92.46C166.218 91.7993 156.967 90.0695 145.462 88.5995Z" fill="#A0AFF8"/>
<path d="M164.122 105.946C164.296 105.298 155.359 102.34 144.161 99.3385C132.964 96.3371 123.745 94.429 123.572 95.0766C123.398 95.7243 132.335 98.6824 143.533 101.684C154.73 104.685 163.949 106.593 164.122 105.946Z" fill="#A0AFF8"/>
<path d="M141.559 108.969C130.721 104.843 121.744 102.005 121.511 102.632C121.268 103.255 129.855 107.11 140.695 111.239C151.529 115.36 160.5 118.198 160.739 117.571C160.978 116.946 152.391 113.093 141.559 108.969Z" fill="#A0AFF8"/>
<path d="M136.324 119.209C126.325 113.348 117.941 109.067 117.601 109.645C117.264 110.229 125.1 115.445 135.102 121.31C145.101 127.167 153.484 131.451 153.825 130.874C154.16 130.299 146.33 125.078 136.324 119.209Z" fill="#A0AFF8"/>
<path d="M45.6643 101.587C45.4253 100.964 36.4469 103.801 25.6144 107.929C14.7782 112.051 6.1875 115.904 6.43032 116.531C6.66372 117.157 15.6459 114.319 26.4784 110.193C37.3108 106.069 45.9015 102.216 45.6643 101.587Z" fill="#A0AFF8"/>
<path d="M41.6458 85.4146C41.563 84.7464 32.1686 85.3996 20.6679 86.8677C9.16728 88.3321 -0.0878377 90.0601 0.000628968 90.7245C0.0834488 91.3889 9.47597 90.7414 20.9804 89.2752C32.4754 87.807 41.7305 86.0809 41.6458 85.4146Z" fill="#A0AFF8"/>
<path d="M49.5722 108.254C49.2277 107.68 40.846 111.964 30.8436 117.826C20.8394 123.687 13.0072 128.912 13.346 129.485C13.6848 130.066 22.0685 125.78 32.0727 119.919C42.0732 114.061 49.9053 108.84 49.5722 108.254Z" fill="#A0AFF8"/>
<path d="M54.5806 113.63C54.1665 113.107 46.4511 118.505 37.356 125.692C28.2571 132.876 21.2211 139.133 21.6409 139.654C22.0512 140.183 29.7666 134.785 38.8636 127.6C47.9607 120.41 54.9966 114.159 54.5806 113.63Z" fill="#A0AFF8"/>
<path d="M84.0573 167C84.7278 167 85.2714 157.601 85.2714 146.007C85.2714 134.413 84.7278 125.014 84.0573 125.014C83.3868 125.014 82.8433 134.413 82.8433 146.007C82.8433 157.601 83.3868 167 84.0573 167Z" fill="#A0AFF8"/>
<path d="M22.9374 99.9476C34.1396 96.9599 43.0807 94.0126 42.9079 93.3648C42.7352 92.7169 33.5139 94.6138 22.3117 97.6016C11.1095 100.589 2.16839 103.537 2.34118 104.185C2.51398 104.832 11.7352 102.935 22.9374 99.9476Z" fill="#A0AFF8"/>
<path d="M71.5947 122.663C70.9528 122.471 67.7586 131.329 64.4628 142.444C61.1744 153.562 59.0192 162.725 59.6648 162.917C60.3086 163.109 63.5028 154.249 66.7911 143.133C70.0926 132.018 72.2384 122.853 71.5947 122.663Z" fill="#A0AFF8"/>
<path d="M76.7834 123.125C76.1199 123.028 74.2238 132.251 72.5483 143.724C70.8729 155.197 70.0525 164.577 70.7159 164.674C71.3794 164.771 73.2755 155.548 74.951 144.075C76.6265 132.601 77.4469 123.222 76.7834 123.125Z" fill="#A0AFF8"/>
<path d="M57.0711 140.705C62.4375 130.429 66.3053 121.846 65.7101 121.535C65.1148 121.225 60.2819 129.303 54.9155 139.579C49.5491 149.855 45.6813 158.438 46.2765 158.748C46.8718 159.059 51.7047 150.981 57.0711 140.705Z" fill="#A0AFF8"/>
<path d="M46.4786 134.904C53.8981 125.996 59.4965 118.428 58.9829 118C58.4693 117.572 52.0381 124.447 44.6186 133.355C37.1991 142.263 31.6007 149.831 32.1143 150.259C32.6279 150.687 39.059 143.812 46.4786 134.904Z" fill="#A0AFF8"/>
</g>
<defs>
<clipPath id="clip0">
<rect width="169" height="167" fill="white"/>
</clipPath>
</defs>
</svg>
