<svg xmlns="http://www.w3.org/2000/svg" xmlns:xlink="http://www.w3.org/1999/xlink" version="1.1" x="0px" y="0px" viewBox="0 0 100 125" enable-background="new 0 0 100 100" xml:space="preserve"><g><path fill="#000000" d="M38.127,30.195c0.273-0.229-2.7-4.25-6.641-8.983c-3.943-4.734-7.361-8.386-7.634-8.157   c-0.273,0.226,2.7,4.25,6.643,8.984C34.437,26.77,37.853,30.422,38.127,30.195z"/><ellipse transform="matrix(0.143 0.9897 -0.9897 0.143 55.0599 -30.3487)" fill="#000000" cx="45.055" cy="16.621" rx="11.152" ry="0.644"/><path fill="#000000" d="M43.906,27.902c0.341-0.102-0.798-4.97-2.552-10.876c-1.748-5.906-3.444-10.612-3.786-10.511   c-0.343,0.103,0.802,4.973,2.549,10.877C41.869,23.299,43.565,28.004,43.906,27.902z"/><ellipse transform="matrix(-0.5062 0.8624 -0.8624 -0.5062 60.1682 24.2761)" fill="#000000" cx="23.135" cy="29.363" rx="0.646" ry="11.153"/><ellipse transform="matrix(-0.3545 0.9351 -0.9351 -0.3545 59.2539 27.1377)" fill="#000000" cx="20.26" cy="34.022" rx="0.645" ry="11.153"/><ellipse transform="matrix(-0.6208 0.784 -0.784 -0.6208 63.1527 20.2875)" fill="#000000" cx="26.67" cy="25.418" rx="0.646" ry="11.153"/><ellipse transform="matrix(-0.2568 0.9665 -0.9665 -0.2568 60.6315 30.8744)" fill="#000000" cx="18.444" cy="38.75" rx="0.645" ry="11.153"/><path fill="#000000" d="M49.673,27.306c0.358,0,0.647-4.994,0.647-11.154C50.32,9.993,50.032,5,49.673,5   c-0.354,0-0.645,4.993-0.645,11.151C49.029,22.312,49.319,27.306,49.673,27.306z"/><ellipse transform="matrix(-0.8627 0.5057 -0.5057 -0.8627 156.8371 16.891)" fill="#000000" cx="76.126" cy="29.733" rx="11.152" ry="0.644"/><ellipse transform="matrix(-0.9346 0.3558 -0.3558 -0.9346 165.0713 38.4243)" fill="#000000" cx="79.002" cy="34.391" rx="11.153" ry="0.646"/><path fill="#000000" d="M70.111,41.887c-3.21-7.955-11.007-13.568-20.113-13.568c-11.06,0-20.186,8.281-21.515,18.982   c-0.801-0.31-5.433-0.548-11.03-0.548c-6.159,0-11.151,0.289-11.151,0.646c0,0.355,4.993,0.646,11.151,0.646   c5.546,0,10.146-0.235,11.008-0.541c-0.093,0.817-0.145,1.65-0.145,2.496c0,11.974,9.708,21.683,21.681,21.683   c11.976,0,21.685-9.709,21.685-21.683c0-1.521-0.158-3.007-0.456-4.439c0.859,0.202,5.471-0.149,11-0.852   c6.111-0.781,11.028-1.7,10.98-2.053c-0.043-0.352-5.034-0.006-11.143,0.773c-5.572,0.709-10.148,1.535-10.879,1.943   c-0.25-1.142-0.585-2.251-1.005-3.319c0.838,0.098,5.386-0.867,10.802-2.311c5.951-1.588,10.702-3.154,10.611-3.498   c-0.091-0.345-4.992,0.663-10.943,2.25C75.177,39.954,70.723,41.397,70.111,41.887z"/><ellipse transform="matrix(0.9899 0.1415 -0.1415 0.9899 2.9504 -7.5007)" fill="#000000" cx="54.207" cy="16.991" rx="0.645" ry="11.152"/><ellipse transform="matrix(-0.1267 0.9919 -0.9919 -0.1267 62.6325 32.26)" fill="#000000" cx="17.116" cy="43.7" rx="0.645" ry="11.153"/><path fill="#000000" d="M71.668,48.661c0,0.358,4.991,0.648,11.15,0.648c6.161,0,11.155-0.29,11.155-0.648   c0-0.354-4.994-0.645-11.155-0.645C76.659,48.016,71.668,48.306,71.668,48.661z"/><path fill="#000000" d="M55.356,28.27c0.339,0.103,2.036-4.604,3.786-10.508c1.75-5.906,2.891-10.773,2.552-10.876   c-0.344-0.103-2.038,4.604-3.791,10.508C56.156,23.3,55.013,28.171,55.356,28.27z"/><path fill="#000000" d="M58.481,28.876c0.317,0.165,2.884-4.127,5.736-9.586c2.848-5.463,4.903-10.02,4.588-10.187   c-0.314-0.165-2.884,4.127-5.733,9.589C60.222,24.149,58.166,28.711,58.481,28.876z"/><path fill="#000000" d="M61.136,30.562c0.272,0.23,3.69-3.422,7.632-8.155c3.943-4.734,6.916-8.754,6.644-8.983   c-0.277-0.229-3.693,3.423-7.634,8.157C63.836,26.312,60.861,30.333,61.136,30.562z"/><ellipse transform="matrix(-0.7847 0.6199 -0.6199 -0.7847 145.5395 1.0248)" fill="#000000" cx="72.592" cy="25.787" rx="11.152" ry="0.647"/><path fill="#000000" d="M40.78,28.504c0.315-0.163-1.74-4.722-4.592-10.181c-2.85-5.461-5.417-9.754-5.732-9.585   c-0.315,0.161,1.74,4.722,4.589,10.18C37.896,24.377,40.463,28.672,40.78,28.504z"/><ellipse transform="matrix(-0.4628 -0.8864 0.8864 -0.4628 24.0768 176.4122)" fill="#000000" cx="65.489" cy="80.911" rx="11.153" ry="0.647"/><path fill="#000000" d="M74.836,73.607c-4.834-3.816-8.931-6.688-9.152-6.408c-0.22,0.282,3.519,3.603,8.353,7.421   c4.831,3.818,8.931,6.688,9.149,6.407C83.408,80.748,79.667,77.426,74.836,73.607z"/><path fill="#000000" d="M62.979,69.336c-0.271,0.229,2.7,4.253,6.642,8.981c3.943,4.736,7.359,8.386,7.634,8.158   c0.272-0.229-2.7-4.248-6.644-8.982C66.669,72.763,63.251,69.107,62.979,69.336z"/><ellipse transform="matrix(-0.1431 -0.9897 0.9897 -0.1431 -17.9871 150.2457)" fill="#000000" cx="56.05" cy="82.91" rx="11.152" ry="0.645"/><ellipse transform="matrix(-0.2842 -0.9588 0.9588 -0.2842 -1.4015 163.5972)" fill="#000000" cx="60.367" cy="82.322" rx="11.153" ry="0.645"/><path fill="#000000" d="M83.15,53.348c-6.111-0.778-11.101-1.123-11.146-0.771c-0.046,0.354,4.869,1.272,10.98,2.051   c6.108,0.78,11.101,1.125,11.146,0.771C94.177,55.048,89.262,54.129,83.15,53.348z"/><ellipse transform="matrix(0.2589 -0.9659 0.9659 0.2589 3.3466 123.7113)" fill="#000000" cx="82.291" cy="59.675" rx="0.645" ry="11.152"/><path fill="#000000" d="M81.076,64.17c-5.758-2.192-10.527-3.7-10.651-3.367c-0.129,0.331,4.433,2.379,10.192,4.573   c5.756,2.189,10.522,3.697,10.649,3.364C91.393,68.408,86.831,66.361,81.076,64.17z"/><path fill="#000000" d="M78.295,69.61c-5.312-3.114-9.766-5.388-9.947-5.081c-0.179,0.31,3.984,3.081,9.298,6.197   c5.312,3.112,9.766,5.388,9.947,5.081C87.771,75.502,83.611,72.728,78.295,69.61z"/><path fill="#000000" d="M30.13,60.248c-0.127-0.331-4.897,1.176-10.652,3.369c-5.757,2.19-10.321,4.237-10.192,4.57   c0.124,0.333,4.896-1.175,10.651-3.367C25.692,62.629,30.256,60.582,30.13,60.248z"/><path fill="#000000" d="M27.995,51.656c-0.044-0.355-5.035-0.008-11.145,0.772c-6.11,0.778-11.027,1.696-10.98,2.049   c0.044,0.353,5.034,0.009,11.146-0.77C23.123,52.927,28.04,52.01,27.995,51.656z"/><path fill="#000000" d="M32.206,63.79c-0.183-0.305-4.636,1.971-9.95,5.085c-5.315,3.114-9.476,5.89-9.296,6.194   c0.18,0.309,4.634-1.968,9.949-5.082C28.222,66.875,32.383,64.101,32.206,63.79z"/><path fill="#000000" d="M34.867,66.646c-0.22-0.278-4.319,2.59-9.151,6.408c-4.834,3.817-8.572,7.141-8.349,7.418   c0.218,0.281,4.317-2.587,9.15-6.404C31.35,70.248,35.088,66.927,34.867,66.646z"/><ellipse fill="#000000" cx="50.527" cy="83.847" rx="0.645" ry="11.153"/><ellipse transform="matrix(0.9662 -0.2577 0.2577 0.9662 -14.5387 6.5964)" fill="#000000" cx="17.892" cy="58.754" rx="11.153" ry="0.645"/><path fill="#000000" d="M43.906,71.445c-0.341-0.102-2.038,4.604-3.789,10.509c-1.747,5.907-2.892,10.775-2.549,10.877   c0.342,0.102,2.039-4.605,3.786-10.511C43.108,76.415,44.248,71.546,43.906,71.445z"/><ellipse transform="matrix(-0.9895 -0.1445 0.1445 -0.9895 77.6781 171.0939)" fill="#000000" cx="45.054" cy="82.725" rx="0.645" ry="11.154"/><ellipse transform="matrix(0.4629 -0.8864 0.8864 0.4629 -52.4274 74.9339)" fill="#000000" cx="35.618" cy="80.728" rx="11.152" ry="0.646"/><ellipse transform="matrix(0.64 -0.7684 0.7684 0.64 -48.7539 51.0168)" fill="#000000" cx="30.067" cy="77.537" rx="11.152" ry="0.643"/></g><text x="0" y="115" fill="#000000" font-size="5px" font-weight="bold" font-family="'Helvetica Neue', Helvetica, Arial-Unicode, Arial, Sans-serif">Created by Federico Panzano</text><text x="0" y="120" fill="#000000" font-size="5px" font-weight="bold" font-family="'Helvetica Neue', Helvetica, Arial-Unicode, Arial, Sans-serif">from the Noun Project</text></svg>